# xmcd
#
# Track frame offsets:
#	150
#	11451
#	22577
#	32431
#	42231
#	50839
#	61877
#	75473
#	85413
#	96784
#	105086
#	117761
#
# Disc length: 1746 seconds
#
# Revision: 0
# Processed by: cddbd v1.4PL0 Copyright (c) Steve Scherf et al.
# Submitted via: dBpowerAMP V4.0
#
DISCID=7b06d00c
DTITLE=luis Morais - Boas Festas
DYEAR=1900
DGENRE=
TTITLE0=Boas Festas
TTITLE1=Linda Melodia
TTITLE2=Ultima Hora
TTITLE3=Ilidio
TTITLE4=Sonhando
TTITLE5=Felicidads a Familia
TTITLE6=Maria Graciela
TTITLE7=Outra Vez
TTITLE8=Regresso
TTITLE9=Anildo Morais
TTITLE10=Infelizmente
TTITLE11=Saudades
EXTD=
EXTT0=
EXTT1=
EXTT2=
EXTT3=
EXTT4=
EXTT5=
EXTT6=
EXTT7=
EXTT8=
EXTT9=
EXTT10=
EXTT11=
PLAYORDER=
